<?xml version="1.0" encoding="UTF-8"?>
<svg xmlns="http://www.w3.org/2000/svg" xmlns:xlink="http://www.w3.org/1999/xlink" version="1.1" viewBox="0 0 4085.7 1000">
  <defs>
    <style>
      .cls-1 {
        fill: #fff;
      }

      .cls-2 {
        fill: url(#Unbenannter_Verlauf_11-5);
      }

      .cls-3 {
        fill: url(#Unbenannter_Verlauf_11-2);
      }

      .cls-4 {
        fill: url(#Unbenannter_Verlauf_11-4);
      }

      .cls-5 {
        fill: url(#Unbenannter_Verlauf_11-3);
      }

      .cls-6 {
        fill: url(#Unbenannter_Verlauf_11);
      }
    </style>
    <linearGradient id="Unbenannter_Verlauf_11" data-name="Unbenannter Verlauf 11" x1="846.6" y1="528.8" x2="363.5" y2="45.6" gradientTransform="translate(142.2 -245.1) rotate(45)" gradientUnits="userSpaceOnUse">
      <stop offset="0" stop-color="#3758f9"/>
      <stop offset=".9" stop-color="#00e8b4"/>
    </linearGradient>
    <linearGradient id="Unbenannter_Verlauf_11-2" data-name="Unbenannter Verlauf 11" x1="799.7" y1="575.8" x2="316.5" y2="92.6" gradientTransform="matrix(1,0,0,1,0,0)" xlink:href="#Unbenannter_Verlauf_11"/>
    <linearGradient id="Unbenannter_Verlauf_11-3" data-name="Unbenannter Verlauf 11" x1="753.6" y1="621.8" x2="270.5" y2="138.7" gradientTransform="matrix(1,0,0,1,0,0)" xlink:href="#Unbenannter_Verlauf_11"/>
    <linearGradient id="Unbenannter_Verlauf_11-4" data-name="Unbenannter Verlauf 11" x1="471.5" y1="904" x2="-11.7" y2="420.8" gradientTransform="matrix(1,0,0,1,0,0)" xlink:href="#Unbenannter_Verlauf_11"/>
    <linearGradient id="Unbenannter_Verlauf_11-5" data-name="Unbenannter Verlauf 11" x1="629.5" y1="746" x2="146.3" y2="262.8" gradientTransform="matrix(1,0,0,1,0,0)" xlink:href="#Unbenannter_Verlauf_11"/>
  </defs>
  <!-- Generator: Adobe Illustrator 28.6.0, SVG Export Plug-In . SVG Version: 1.2.0 Build 709)  -->
  <g>
    <g id="draft">
      <g>
        <rect class="cls-6" x="328" y="10.2" width="77.8" height="77.8" rx="14.3" ry="14.3" transform="translate(72.7 273.9) rotate(-45)"/>
        <path class="cls-3" d="M261.5,99.6l-33.4,33.4c-5.6,5.6-5.6,14.6,0,20.2l128.8,128.8c5.6,5.6,14.6,5.6,20.2,0l128.8-128.8c5.6-5.6,5.6-14.6,0-20.2l-33.4-33.4c-5.6-5.6-14.6-5.6-20.2,0l-75.2,75.2c-5.6,5.6-14.6,5.6-20.2,0l-75.2-75.2c-5.6-5.6-14.6-5.6-20.2,0Z"/>
        <path class="cls-5" d="M356.9,362.7l-169.2-169.2c-5.6-5.6-14.6-5.6-20.2,0l-31.5,31.5c-5.6,5.6-5.6,14.6,0,20.2l220.9,220.9c5.6,5.6,14.6,5.6,20.2,0l220.9-220.9c5.6-5.6,5.6-14.6,0-20.2l-31.5-31.5c-5.6-5.6-14.6-5.6-20.2,0l-169.2,169.2c-5.6,5.6-14.6,5.6-20.2,0Z"/>
        <path class="cls-4" d="M104.4,401.6l221.9,221.9c4.5,4.5,12.2,1.3,12.2-5v-84.1c0-3.8-1.5-7.4-4.2-10.1l-235.9-235.9c-6.1-6.1-16.3-5.4-21.5,1.5-12.2,16.3-23.1,33.7-32.5,51.8h0c-9.6,18.4-17.5,37.4-23.9,56.8h0c-90.6,274.9,138.5,427.2,305.7,599,4.5,4.6,12.2,1.4,12.2-5v-82.3c0-3.8-1.5-7.4-4.2-10.1l-168.4-168.4c-42.4-42.2-71.3-96.3-83.1-154.5-.7-3.5,3.5-5.7,6-3.2l237.5,237.5c4.5,4.5,12.2,1.3,12.2-5v-84.1c0-3.8-1.5-7.4-4.2-10.1l-249.7-249.7c-1.7-1.7-2.4-4.1-2-6.4,3.6-18.1,9-36,15.9-53.3,1-2.4,4-3,5.8-1.2Z"/>
        <path class="cls-2" d="M731,487.9h0c0-.2,0-.5,0-.7,0-.8-.1-1.6-.2-2.4-.1-1.2-.2-2.5-.3-3.7,0-.8-.2-1.7-.2-2.5-.1-1.2-.2-2.4-.4-3.6,0-.8-.2-1.7-.3-2.5-.1-1.2-.3-2.4-.4-3.6-.1-.8-.2-1.7-.3-2.5-.2-1.2-.3-2.4-.5-3.7-.1-.8-.2-1.6-.3-2.4-.2-1.3-.4-2.7-.6-4-.1-.7-.2-1.4-.3-2.1-.3-1.8-.6-3.7-.9-5.5,0-.2,0-.4,0-.5-.4-2-.7-4-1.1-6-.1-.6-.3-1.3-.4-1.9-.3-1.4-.6-2.7-.8-4.1-.2-.8-.3-1.5-.5-2.3-.3-1.2-.5-2.5-.8-3.7-.2-.8-.4-1.6-.6-2.4-.3-1.2-.6-2.4-.9-3.6-.2-.8-.4-1.6-.6-2.5-.3-1.2-.6-2.4-.9-3.5-.2-.8-.4-1.6-.7-2.4-.3-1.2-.7-2.4-1-3.6-.2-.8-.4-1.5-.7-2.3-.4-1.3-.8-2.6-1.2-3.9-.2-.6-.4-1.3-.6-1.9v-.2c-.9-2.6-4.1-3.4-6-1.5l-57.2,57.2h0s-175.4,175.4-175.4,175.4c-2.2,2.2-6.1.7-6.1-2.5v-69.1c0-1.9.8-3.7,2.1-5l209.4-209.4c4.5-4.5,5.5-11.5,2.4-17-8.1-14.5-17.2-28.6-27.4-42.2-5.2-7-15.4-7.7-21.5-1.5l-235.9,235.9c-2.7,2.7-4.2,6.3-4.2,10.1v101.3l.2-.2v80.7l-.2.2v90c0,6.4,7.7,9.5,12.2,5l237.5-237.5c2.5-2.5,6.7-.2,6,3.2-3.7,18.3-9.1,36.3-16.2,53.8-15.3,37.7-37.8,71.6-66.9,100.6l-168.4,168.4c-2.7,2.7-4.2,6.3-4.2,10.1v82.8c0,6.4,7.7,9.5,12.2,5l213.4-213.4c81.3-81.3,117.9-190.3,110-296.6Z"/>
      </g>
      <g>
        <path class="cls-1" d="M990,302.7c0-13.6,6.8-20.3,20.3-20.3h212.1c13.6,0,20.3,6.8,20.3,20.3v12.3c0,13.6-6.8,20.3-20.3,20.3h-172v136.2h136.2c13.6,0,20.3,6.8,20.3,20.3v12.3c0,13.6-6.8,20.3-20.3,20.3h-136.2v139.9h182.5c13.6,0,20.3,6.8,20.3,20.3v12.3c0,13.6-6.8,20.3-20.3,20.3h-222.5c-13.6,0-20.3-6.8-20.3-20.3v-394.5Z"/>
        <path class="cls-1" d="M1309.9,632.5c0-16,3.1-29.9,9.2-41.6,6.2-11.7,14.4-21.5,24.7-29.3,10.3-7.8,21.9-14.2,34.8-19.1,12.9-4.9,26.4-8.6,40.4-11.1,14-2.5,27.6-4.1,41-4.9,13.3-.8,25.4-1.2,36.1-1.2h16v-8c0-12.7-1.8-23.5-5.2-32.4-3.5-8.8-8.3-15.9-14.5-21.3-6.2-5.3-13.4-9.1-21.6-11.4-8.2-2.3-17.1-3.4-26.5-3.4-15.6,0-29.5,2.3-41.6,6.8-12.1,4.5-21.7,8.8-28.7,12.9-11.9,5.8-21.2,3.3-27.7-7.4l-4.9-8.6c-6.6-12.3-4.3-21.6,6.8-27.7,9.4-5.3,22.7-11.1,39.8-17.3,17-6.2,37.5-9.2,61.3-9.2,39,0,69.2,10.4,90.6,31.1,21.4,20.8,32.1,51.1,32.1,90.9v176.9c0,13.6-6.8,20.3-20.3,20.3h-15.4c-13.6,0-20.3-6.8-20.3-20.3v-26.5c0-2.5.2-4.5.6-6.2.4-1.6.8-3.3,1.2-4.9h-1.2c-6.2,12.3-14,23.2-23.4,32.7-8.2,8.2-18.7,15.7-31.4,22.5-12.7,6.8-28.4,10.2-46.8,10.2s-26.7-2.1-39.5-6.2c-12.7-4.1-23.9-10.2-33.6-18.2-9.7-8-17.4-17.7-23.1-29-5.8-11.3-8.6-24.3-8.6-39.1ZM1370.3,627.6c0,12.3,4.8,23.7,14.5,34.2,9.7,10.5,24.1,15.7,43.5,15.7s25-3,35.4-8.9c10.5-6,19.3-13.8,26.5-23.4,7.2-9.7,12.7-20.3,16.6-32.1,3.9-11.7,5.9-23.3,5.9-34.8v-13.6h-16c-11.1,0-23.8.5-38.2,1.5-14.4,1-28.2,3.6-41.3,7.7-13.2,4.1-24.3,10.4-33.3,18.8-9,8.4-13.6,20-13.6,34.8Z"/>
        <path class="cls-1" d="M1669.3,426c0-13.6,6.8-20.3,20.3-20.3h17.3c13.6,0,20.3,6.8,20.3,20.3v35.8c0,3.3-.1,6.4-.3,9.2-.2,2.9-.5,5.3-.9,7.4-.4,2.5-.6,4.7-.6,6.8h1.2c3.3-10.3,7.9-20.3,13.9-30.2,6-9.9,13-18.6,21.3-26.2,8.2-7.6,17.4-13.8,27.4-18.5,10.1-4.7,21.1-7.1,33-7.1s19.7,6.8,19.7,20.3v17.3c0,13.6-7.4,20.3-22.2,20.3s-28.5,3.8-39.8,11.4c-11.3,7.6-20.8,17.4-28.4,29.3-7.6,11.9-13.3,25.6-17,41-3.7,15.4-5.5,30.7-5.5,45.9v108.5c0,13.6-6.8,20.3-20.3,20.3h-19.1c-13.6,0-20.3-6.8-20.3-20.3v-271.2Z"/>
        <path class="cls-1" d="M1919,457.5h-21.6c-13.2,0-19.7-6.8-19.7-20.3v-8c0-13.6,6.8-20.3,20.3-20.3h22.2v-68.4c0-13.6,6.8-20.3,20.3-20.3h17.9c13.6,0,20.3,6.8,20.3,20.3v68.4h54.2c13.6,0,20.3,6.8,20.3,20.3v8c0,13.6-6.6,20.3-19.7,20.3h-54.9v138.7c0,14.8,2.1,26.7,6.2,35.8,4.1,9,9.1,16,15.1,21,6,4.9,12.3,8.3,19.1,10.2,6.8,1.8,13,3,18.8,3.4,8.2.8,13.9,2.7,17,5.5,3.1,2.9,4.6,7.8,4.6,14.8v12.9c0,13.6-8.2,20.3-24.7,20.3s-30.4-2.3-44.4-6.8c-14-4.5-26.2-11.5-36.7-21-10.5-9.4-18.9-21.4-25.3-35.8-6.4-14.4-9.6-31.4-9.6-51.2v-147.9Z"/>
        <path class="cls-1" d="M2131,302.7c0-13.6,6.8-20.3,20.3-20.3h19.1c13.1,0,19.7,6.8,19.7,20.3v141.2c0,3.7-.1,7.2-.3,10.5-.2,3.3-.5,6-.9,8-.4,2.9-.6,5.3-.6,7.4h1.2c3.3-7.4,8.3-15.3,15.1-23.7,6.8-8.4,15.1-16.2,25-23.4,9.9-7.2,21.2-13,33.9-17.6,12.7-4.5,26.9-6.8,42.5-6.8,37,0,64.1,10,81.4,29.9,17.3,19.9,25.9,49.8,25.9,89.7v179.4c0,13.6-6.8,20.3-20.3,20.3h-19.1c-13.6,0-20.3-6.8-20.3-20.3v-165.8c0-11.1-.7-21.4-2.2-30.8-1.4-9.4-4.3-17.7-8.6-24.7-4.3-7-10.4-12.5-18.2-16.6-7.8-4.1-17.9-6.2-30.2-6.2s-28.6,2.9-41.3,8.6c-12.7,5.8-23.7,13.9-33,24.3-9.2,10.5-16.5,22.8-21.9,37-5.3,14.2-8,29.7-8,46.5v127.6c0,13.6-6.6,20.3-19.7,20.3h-19.1c-13.6,0-20.3-6.8-20.3-20.3v-394.5Z"/>
        <path class="cls-1" d="M2500.3,680c-4.1-3.7-6.7-7.8-7.7-12.3-1-4.5.7-9.9,5.2-16l10.5-14.8c7.4-9.4,16.6-10.7,27.7-3.7,3.7,2.9,8.6,6.3,14.8,10.2,6.2,3.9,13.3,7.7,21.3,11.4,8,3.7,17,6.9,26.8,9.6,9.9,2.7,20.5,4,32.1,4,23.4,0,42-5.6,55.8-17,13.8-11.3,20.7-26.4,20.7-45.3s-5.1-29.2-15.4-39.5c-10.3-10.3-23.2-19.4-38.8-27.4-15.6-8-32.5-15.8-50.5-23.4-18.1-7.6-34.9-16.4-50.5-26.5-15.6-10.1-28.6-22.5-38.8-37.3-10.3-14.8-15.4-33.5-15.4-56.1s3.6-35.1,10.8-49.9c7.2-14.8,17.2-27.4,29.9-37.9,12.7-10.5,27.7-18.6,45-24.3,17.3-5.8,35.8-8.6,55.5-8.6s24.9,1.1,36.4,3.4c11.5,2.3,22,5,31.4,8.3,9.4,3.3,17.7,6.9,24.7,10.8,7,3.9,12.5,7.5,16.6,10.8,9.9,7,11.9,16.2,6.2,27.7l-8.6,15.4c-3.7,6.6-7.9,10-12.6,10.2-4.7.2-9.8-1.3-15.1-4.6-8.2-4.9-19-10.4-32.4-16.3-13.4-6-29.3-8.9-47.8-8.9s-41.3,5.5-56.1,16.3c-14.8,10.9-22.2,25.8-22.2,44.7s5.1,28.4,15.4,38.2c10.3,9.9,23.2,18.6,38.8,26.2,15.6,7.6,32.5,15,50.5,22.2,18.1,7.2,34.9,15.9,50.5,26.2,15.6,10.3,28.6,22.9,38.8,37.9,10.3,15,15.4,34.2,15.4,57.6s-3.1,33.4-9.2,48.4c-6.2,15-15.2,28-27.1,39.1-11.9,11.1-26.4,19.9-43.5,26.5-17.1,6.6-36.5,9.9-58.3,9.9s-30.3-1.5-44.1-4.6c-13.8-3.1-26.2-7-37.3-11.7-11.1-4.7-20.9-9.7-29.3-14.8-8.4-5.1-15.1-9.8-20-13.9Z"/>
        <path class="cls-1" d="M2833.8,561.6c0-23,4.1-44.5,12.3-64.4,8.2-19.9,19.7-37.2,34.5-51.8,14.8-14.6,32.4-26.1,52.7-34.5,20.3-8.4,42.6-12.6,66.9-12.6s25.1,1.1,35.8,3.4c10.7,2.3,20.3,5,29,8.3,8.6,3.3,16.1,6.9,22.5,10.8,6.4,3.9,11.6,7.5,15.7,10.8,5.3,3.3,8.2,7.4,8.6,12.3.4,4.9-1.2,10.1-4.9,15.4l-6.2,9.2c-6.6,10.3-15.8,11.9-27.7,4.9-6.6-4.5-15.7-9.6-27.4-15.1-11.7-5.5-25.8-8.3-42.2-8.3s-30.1,2.8-43.5,8.3c-13.4,5.5-24.9,13.3-34.5,23.1-9.7,9.9-17.2,21.6-22.5,35.1-5.3,13.6-8,28.4-8,44.4s2.7,30.8,8,44.4c5.3,13.6,12.9,25.4,22.8,35.4,9.9,10.1,21.5,18,34.8,23.7,13.3,5.8,28,8.6,44.1,8.6s35-3.3,48.4-9.9c13.4-6.6,23.7-12.7,31.1-18.5,11.5-7.4,20.7-5.5,27.7,5.5l4.9,9.2c6.6,11.1,4.7,20.1-5.5,27.1-4.5,3.7-10.2,7.7-17,12-6.8,4.3-14.8,8.4-24,12.3-9.2,3.9-19.7,7.2-31.4,9.9-11.7,2.7-24.6,4-38.5,4-24.7,0-47.2-4.1-67.5-12.3-20.3-8.2-37.8-19.6-52.4-34.2-14.6-14.6-26-31.8-34.2-51.8-8.2-19.9-12.3-41.6-12.3-65Z"/>
        <path class="cls-1" d="M3172.8,561c0-23.4,4.4-45.1,13.3-65,8.8-19.9,20.7-37.2,35.8-51.8,15-14.6,32.7-25.9,53-33.9,20.3-8,42.2-12,65.7-12s45.3,4,65.6,12c20.3,8,38.1,19.3,53.3,33.9,15.2,14.6,27.2,31.9,36.1,51.8,8.8,19.9,13.3,41.6,13.3,65s-4.4,45.7-13.3,65.7c-8.8,19.9-20.9,37.2-36.1,51.8-15.2,14.6-33,26-53.3,34.2-20.3,8.2-42.2,12.3-65.6,12.3s-45.3-4.1-65.7-12.3c-20.3-8.2-38-19.6-53-34.2-15-14.6-26.9-31.8-35.8-51.8-8.8-19.9-13.3-41.8-13.3-65.7ZM3233.2,561c0,16.4,2.9,31.5,8.6,45.3,5.8,13.8,13.5,25.6,23.1,35.4,9.7,9.9,21,17.6,33.9,23.1,12.9,5.5,26.8,8.3,41.6,8.3s28.7-2.8,41.6-8.3c12.9-5.5,24.3-13.3,34.2-23.1,9.9-9.9,17.6-21.7,23.1-35.4,5.5-13.8,8.3-28.9,8.3-45.3s-2.8-30.8-8.3-44.4c-5.5-13.6-13.3-25.3-23.1-35.1-9.9-9.9-21.3-17.6-34.2-23.1-12.9-5.5-26.8-8.3-41.6-8.3s-28.7,2.8-41.6,8.3c-12.9,5.5-24.3,13.3-33.9,23.1-9.7,9.9-17.4,21.6-23.1,35.1-5.8,13.6-8.6,28.4-8.6,44.4Z"/>
        <path class="cls-1" d="M3590.1,426c0-13.6,6.8-20.3,20.3-20.3h17.3c13.6,0,20.3,6.8,20.3,20.3v35.8c0,3.3-.1,6.4-.3,9.2-.2,2.9-.5,5.3-.9,7.4-.4,2.5-.6,4.7-.6,6.8h1.2c3.3-10.3,7.9-20.3,13.9-30.2,6-9.9,13-18.6,21.3-26.2,8.2-7.6,17.4-13.8,27.4-18.5,10.1-4.7,21.1-7.1,33-7.1s19.7,6.8,19.7,20.3v17.3c0,13.6-7.4,20.3-22.2,20.3s-28.5,3.8-39.8,11.4c-11.3,7.6-20.8,17.4-28.4,29.3-7.6,11.9-13.3,25.6-17,41-3.7,15.4-5.5,30.7-5.5,45.9v108.5c0,13.6-6.8,20.3-20.3,20.3h-19.1c-13.6,0-20.3-6.8-20.3-20.3v-271.2Z"/>
        <path class="cls-1" d="M3795.4,561.6c0-24.7,4-47.1,12-67.2,8-20.1,18.9-37.3,32.7-51.5,13.8-14.2,30.2-25.2,49.3-33,19.1-7.8,39.8-11.7,62-11.7s40.5,3.7,57.3,11.1c16.8,7.4,30.9,17.7,42.2,30.8,11.3,13.2,19.9,28.8,25.9,46.8,6,18.1,8.9,38,8.9,59.8s-2,10.7-5.9,14.8c-3.9,4.1-8.9,6.2-15.1,6.2h-208.4c.8,16.9,4.3,31.9,10.5,45,6.2,13.2,14.2,24.3,24,33.3,9.9,9,21.1,15.8,33.6,20.3,12.5,4.5,25.8,6.8,39.8,6.8s32.3-2.8,45-8.3c12.7-5.5,22.6-11,29.6-16.3,12.3-6.6,21.6-4.3,27.7,6.8l5.5,9.2c3.3,5.3,4.4,10.4,3.4,15.1-1,4.7-4.2,8.7-9.6,12-4.5,3.3-10.3,6.9-17.3,10.8-7,3.9-14.9,7.5-23.7,10.8-8.8,3.3-18.7,6.1-29.6,8.3-10.9,2.3-22.5,3.4-34.8,3.4-24.7,0-47.1-4.2-67.2-12.6-20.1-8.4-37.5-19.9-52.1-34.5-14.6-14.6-25.9-31.8-33.9-51.8-8-19.9-12-41.4-12-64.4ZM4025.9,528.4c-.8-27.5-8.5-48.3-23.1-62.3-14.6-14-32.2-21-52.7-21s-42.8,7.3-59.5,21.9c-16.6,14.6-27.2,35-31.7,61.3h167.1Z"/>
      </g>
    </g>
  </g>
</svg>