<svg xmlns="http://www.w3.org/2000/svg" width="26" height="25" viewBox="0 0 26 25" fill="none"><script xmlns=""/>
<path fill-rule="evenodd" clip-rule="evenodd" d="M12.0991 5.91319H7.85117C8.05361 5.37774 8.28227 4.87145 8.53582 4.39981C9.5277 2.55537 10.7803 1.46389 12.0991 1.2794V5.91319ZM12.0991 11.888H6.74893C6.79547 10.2148 7.0327 8.611 7.44078 7.16438H12.0991V11.888ZM12.0991 17.7901H7.42814C7.03007 16.3633 6.79766 14.7851 6.74987 13.1392H12.0991V17.7901ZM12.0991 23.7206C10.7803 23.5361 9.5277 22.4446 8.53582 20.6002C8.27513 20.1153 8.04104 19.5935 7.83434 19.0413H12.0991V23.7206ZM3.35395 19.0413H6.50652C6.76852 19.8104 7.07857 20.5319 7.4339 21.1927C7.83203 21.9331 8.27395 22.5724 8.75009 23.1053C6.56232 22.3294 4.68365 20.8951 3.35395 19.0413ZM1.26977 13.1392H5.49805C5.54309 14.7699 5.76042 16.3441 6.13366 17.7901H2.57527C1.82568 16.3894 1.36399 14.8127 1.26978 13.1392H1.26977ZM2.59929 7.16438H6.14567C5.76306 8.6309 5.54097 10.2304 5.49711 11.888H1.26802C1.35973 10.1863 1.83124 8.58398 2.59929 7.16438ZM8.75009 1.89473C8.27395 2.42761 7.83203 3.06691 7.4339 3.80724C7.08557 4.45498 6.78084 5.16115 6.52222 5.91318H3.38717C4.71487 4.08143 6.58034 2.66421 8.75009 1.89473ZM22.9207 13.1392C23.1621 13.6915 23.7128 14.0777 24.3541 14.0777C25.2179 14.0777 25.9181 13.3774 25.9181 12.5137C25.9181 11.6498 25.2179 10.9497 24.3541 10.9497C23.7129 10.9497 23.1621 11.3357 22.9207 11.888H13.3503V7.16438H21.3761C21.6175 7.71672 22.1683 8.10277 22.8096 8.10277C23.6734 8.10277 24.3736 7.40261 24.3736 6.53878C24.3736 5.67502 23.6734 4.97479 22.8096 4.97479C22.1683 4.97479 21.6175 5.36091 21.3761 5.91318H13.3503V1.28408C14.6018 1.37817 15.7964 1.67858 16.9012 2.15009C16.9011 2.1556 16.9007 2.16104 16.9007 2.16661C16.9007 3.03037 17.601 3.7306 18.4647 3.7306C19.3285 3.7306 20.0287 3.03037 20.0287 2.16661C20.0287 1.30285 19.3285 0.602625 18.4647 0.602625C18.0607 0.602625 17.6925 0.755895 17.4149 1.00738C15.9055 0.359395 14.244 -1.52588e-05 12.5 -1.52588e-05C7.91804 -1.52588e-05 3.90472 2.47853 1.72839 6.16485C1.70118 6.2012 1.67778 6.24036 1.65889 6.28221C0.60389 8.11458 0 10.2381 0 12.5C0 19.3925 5.60747 25 12.5 25C14.2613 25 15.9384 24.6336 17.4598 23.9733C17.7316 24.2016 18.082 24.3393 18.4647 24.3393C19.3285 24.3393 20.0287 23.6391 20.0287 22.7753C20.0287 21.9115 19.3285 21.2113 18.4647 21.2113C17.601 21.2113 16.9007 21.9115 16.9007 22.7753C16.9007 22.8003 16.9015 22.8252 16.9027 22.8499C15.7975 23.3217 14.6023 23.6219 13.3503 23.716V19.0412H21.3761C21.6175 19.5935 22.1683 19.9796 22.8096 19.9796C23.6734 19.9796 24.3736 19.2794 24.3736 18.4156C24.3736 17.5519 23.6734 16.8517 22.8096 16.8517C22.1683 16.8517 21.6175 17.2378 21.3761 17.79H13.3503V13.1392L22.9207 13.1392Z" fill="url(#paint0_linear_0_2826)"/>
<defs>
<linearGradient id="paint0_linear_0_2826" x1="31.3016" y1="12.8099" x2="13.9153" y2="-5.87692" gradientUnits="userSpaceOnUse">
<stop stop-color="#024C8F"/>
<stop offset="0.5" stop-color="#08C0FA"/>
<stop offset="1" stop-color="#00E8E2"/>
</linearGradient>
</defs>
<script xmlns=""/></svg>