<svg width="120" height="163" viewBox="0 0 120 163" fill="none" xmlns="http://www.w3.org/2000/svg">
<path d="M58.3411 0.699683L52.6752 6.36558C51.763 7.27781 51.763 8.75685 52.6752 9.66909L58.3411 15.335C59.2533 16.2472 60.7324 16.2472 61.6446 15.335L67.3105 9.66908C68.2227 8.75684 68.2227 7.27782 67.3105 6.36558L61.6446 0.699688C60.7324 -0.21255 59.2533 -0.212555 58.3411 0.699683Z" fill="url(#paint0_linear_380_3843)"/>
<path d="M42.8174 16.2157L37.3578 21.6753C36.4615 22.5716 36.4615 24.0655 37.3578 24.9619L58.354 45.9581C59.2504 46.8544 60.7443 46.8544 61.6406 45.9581L82.6368 24.9619C83.5332 24.0655 83.5332 22.5716 82.6368 21.6753L77.1773 16.2157C76.2809 15.3194 74.787 15.3194 73.8907 16.2157L61.6406 28.4658C60.7443 29.3621 59.2504 29.3621 58.354 28.4658L46.104 16.2157C45.2076 15.3194 43.7137 15.3194 42.8174 16.2157Z" fill="url(#paint1_linear_380_3843)"/>
<path d="M58.3533 59.1045L30.7839 31.5351C29.8875 30.6387 28.3936 30.6387 27.4973 31.5351L22.3637 36.6687C21.4673 37.565 21.4673 39.0589 22.3637 39.9553L58.3533 75.9449C59.2496 76.8412 60.7435 76.8412 61.6399 75.9449L97.6295 39.9553C98.5258 39.0589 98.5258 37.565 97.6295 36.6687L92.4959 31.5351C91.5995 30.6387 90.1056 30.6387 89.2093 31.5351L61.6399 59.1045C60.7435 60.0008 59.2496 60.0008 58.3533 59.1045Z" fill="url(#paint2_linear_380_3843)"/>
<path d="M17.2038 65.4332L53.3564 101.586C54.0898 102.319 55.3392 101.803 55.3392 100.771V87.0541C55.3392 86.4294 55.0948 85.859 54.6602 85.3972L16.226 46.963C15.221 45.958 13.5641 46.0667 12.7221 47.2075C10.7393 49.8694 8.94656 52.6942 7.42549 55.6549C5.87726 58.6427 4.57349 61.7391 3.54133 64.9171C-11.2348 109.707 26.1129 134.533 53.3564 162.537C54.0898 163.298 55.3392 162.782 55.3392 161.722V148.304C55.3392 147.68 55.0948 147.109 54.6602 146.647L27.1994 119.187C20.3003 112.315 15.5741 103.487 13.6456 94.0076C13.5369 93.4372 14.216 93.0841 14.6234 93.4915L53.3292 132.197C54.0626 132.931 55.3121 132.415 55.3121 131.382V117.666C55.3121 117.041 55.0676 116.471 54.633 116.009L13.9444 75.3201C13.6728 75.0485 13.5369 74.6682 13.6184 74.288C14.216 71.3273 15.0852 68.421 16.226 65.5961C16.3889 65.2159 16.8779 65.1072 17.1766 65.406L17.2038 65.4332Z" fill="url(#paint3_linear_380_3843)"/>
<path d="M119.334 79.5302C119.334 79.503 119.334 79.4487 119.334 79.4215C119.334 79.2857 119.334 79.1499 119.307 79.0413C119.307 78.8511 119.279 78.6338 119.252 78.4437C119.252 78.3079 119.252 78.1721 119.225 78.0363C119.225 77.8461 119.198 77.656 119.171 77.4659C119.171 77.3301 119.144 77.1943 119.116 77.0584C119.116 76.8683 119.062 76.6782 119.035 76.488C119.035 76.3522 119.008 76.2164 118.981 76.0806C118.981 75.8905 118.926 75.6732 118.899 75.483C118.899 75.3472 118.872 75.2114 118.845 75.1028C118.818 74.8855 118.79 74.6682 118.736 74.4509C118.736 74.3422 118.709 74.2336 118.682 74.1249C118.627 73.8262 118.573 73.5274 118.519 73.2286C118.519 73.2014 118.519 73.1743 118.519 73.1471C118.464 72.8212 118.41 72.4952 118.329 72.1693C118.329 72.0606 118.274 71.952 118.274 71.8705C118.22 71.6532 118.193 71.4359 118.139 71.1915C118.139 71.0556 118.084 70.947 118.057 70.8112C118.003 70.6211 117.976 70.4038 117.921 70.2136C117.894 70.0778 117.867 69.942 117.84 69.8062C117.785 69.6161 117.758 69.4259 117.704 69.2358C117.677 69.1 117.65 68.9642 117.595 68.8284C117.541 68.6382 117.487 68.4481 117.432 68.258C117.405 68.1222 117.351 67.9863 117.324 67.8505C117.269 67.6604 117.215 67.4703 117.161 67.253C117.134 67.1172 117.079 67.0085 117.052 66.8727C116.998 66.6554 116.916 66.4381 116.862 66.2208C116.835 66.1122 116.808 66.0035 116.78 65.8949C116.645 65.4331 116.129 65.2973 115.803 65.6232L106.486 74.9398L77.9117 103.514C77.5586 103.867 76.9067 103.623 76.9067 103.107V91.8346C76.9067 91.5358 77.0425 91.237 77.2598 91.0197L111.402 56.8771C112.136 56.1437 112.299 55.0029 111.783 54.1066C110.452 51.7435 108.985 49.4347 107.328 47.2346C106.486 46.0938 104.829 45.9851 103.824 46.9901L65.39 85.4243C64.9554 85.8589 64.7109 86.4565 64.7109 87.0812V103.596V116.715V131.41C64.7109 132.442 65.9604 132.958 66.6938 132.224L105.4 93.5186C105.807 93.1112 106.486 93.4914 106.377 94.0347C105.78 97.0225 104.883 99.956 103.743 102.808C101.244 108.947 97.5769 114.46 92.8508 119.214L65.39 146.675C64.9554 147.109 64.7109 147.707 64.7109 148.331V161.831C64.7109 162.863 65.9604 163.379 66.6938 162.646L101.461 127.878C114.716 114.623 120.692 96.8595 119.388 79.5573L119.334 79.5302Z" fill="url(#paint4_linear_380_3843)"/>
<defs>
<linearGradient id="paint0_linear_380_3843" x1="138.182" y1="86.1932" x2="59.439" y2="7.45064" gradientUnits="userSpaceOnUse">
<stop stop-color="#3758F9"/>
<stop offset="0.9" stop-color="#00E8B4"/>
</linearGradient>
<linearGradient id="paint1_linear_380_3843" x1="130.523" y1="93.8446" x2="51.7808" y2="15.1021" gradientUnits="userSpaceOnUse">
<stop stop-color="#3758F9"/>
<stop offset="0.9" stop-color="#00E8B4"/>
</linearGradient>
<linearGradient id="paint2_linear_380_3843" x1="123.026" y1="101.341" x2="44.2834" y2="22.5988" gradientUnits="userSpaceOnUse">
<stop stop-color="#3758F9"/>
<stop offset="0.9" stop-color="#00E8B4"/>
</linearGradient>
<linearGradient id="paint3_linear_380_3843" x1="77.0416" y1="147.327" x2="-1.70094" y2="68.584" gradientUnits="userSpaceOnUse">
<stop stop-color="#3758F9"/>
<stop offset="0.9" stop-color="#00E8B4"/>
</linearGradient>
<linearGradient id="paint4_linear_380_3843" x1="102.792" y1="121.577" x2="24.0495" y2="42.8344" gradientUnits="userSpaceOnUse">
<stop stop-color="#3758F9"/>
<stop offset="0.9" stop-color="#00E8B4"/>
</linearGradient>
</defs>
</svg>
