<?xml version="1.0" encoding="UTF-8"?>
<svg id="draft" xmlns="http://www.w3.org/2000/svg" xmlns:xlink="http://www.w3.org/1999/xlink" version="1.1" viewBox="0 0 1375.9 890">
  <defs>
    <style>
      .cls-1 {
        fill: url(#Unbenannter_Verlauf_11-5);
      }

      .cls-1, .cls-2, .cls-3, .cls-4, .cls-5, .cls-6 {
        stroke-width: 0px;
      }

      .cls-2 {
        fill: url(#Unbenannter_Verlauf_11-4);
      }

      .cls-3 {
        fill: url(#Unbenannter_Verlauf_11-2);
      }

      .cls-4 {
        fill: url(#Unbenannter_Verlauf_11-3);
      }

      .cls-5 {
        fill: #1d1d1d;
      }

      .cls-6 {
        fill: url(#Unbenannter_Verlauf_11);
      }
    </style>
    <linearGradient id="Unbenannter_Verlauf_11" data-name="Unbenannter Verlauf 11" x1="976.3" y1="317.3" x2="686.4" y2="27.4" gradientTransform="translate(222.5 -478.2) rotate(45)" gradientUnits="userSpaceOnUse">
      <stop offset="0" stop-color="#3758f9"/>
      <stop offset=".9" stop-color="#00e8b4"/>
    </linearGradient>
    <linearGradient id="Unbenannter_Verlauf_11-2" data-name="Unbenannter Verlauf 11" x1="948.1" y1="345.5" x2="658.2" y2="55.6" gradientTransform="matrix(1,0,0,1,0,0)" xlink:href="#Unbenannter_Verlauf_11"/>
    <linearGradient id="Unbenannter_Verlauf_11-3" data-name="Unbenannter Verlauf 11" x1="920.5" y1="373.1" x2="630.6" y2="83.2" gradientTransform="matrix(1,0,0,1,0,0)" xlink:href="#Unbenannter_Verlauf_11"/>
    <linearGradient id="Unbenannter_Verlauf_11-4" data-name="Unbenannter Verlauf 11" x1="751.2" y1="542.4" x2="461.3" y2="252.5" gradientTransform="matrix(1,0,0,1,0,0)" xlink:href="#Unbenannter_Verlauf_11"/>
    <linearGradient id="Unbenannter_Verlauf_11-5" data-name="Unbenannter Verlauf 11" x1="846" y1="447.6" x2="556.1" y2="157.7" gradientTransform="matrix(1,0,0,1,0,0)" xlink:href="#Unbenannter_Verlauf_11"/>
  </defs>
  <g>
    <rect class="cls-6" x="665.1" y="6.1" width="46.7" height="46.7" rx="8.6" ry="8.6" transform="translate(180.8 495.5) rotate(-45)"/>
    <path class="cls-3" d="M625.2,59.7l-20.1,20.1c-3.3,3.3-3.3,8.8,0,12.1l77.3,77.3c3.3,3.3,8.8,3.3,12.1,0l77.3-77.3c3.3-3.3,3.3-8.8,0-12.1l-20.1-20.1c-3.3-3.3-8.8-3.3-12.1,0l-45.1,45.1c-3.3,3.3-8.8,3.3-12.1,0l-45.1-45.1c-3.3-3.3-8.8-3.3-12.1,0Z"/>
    <path class="cls-4" d="M682.4,217.6l-101.5-101.5c-3.3-3.3-8.8-3.3-12.1,0l-18.9,18.9c-3.3,3.3-3.3,8.8,0,12.1l132.5,132.5c3.3,3.3,8.8,3.3,12.1,0l132.5-132.5c3.3-3.3,3.3-8.8,0-12.1l-18.9-18.9c-3.3-3.3-8.8-3.3-12.1,0l-101.5,101.5c-3.3,3.3-8.8,3.3-12.1,0Z"/>
    <path class="cls-2" d="M530.9,240.9l133.1,133.1c2.7,2.7,7.3.8,7.3-3v-50.5c0-2.3-.9-4.4-2.5-6.1l-141.5-141.5c-3.7-3.7-9.8-3.3-12.9.9-7.3,9.8-13.9,20.2-19.5,31.1h0c-5.7,11-10.5,22.4-14.3,34.1h0c-54.4,164.9,83.1,256.3,183.4,359.4,2.7,2.8,7.3.9,7.3-3v-49.4c0-2.3-.9-4.4-2.5-6.1l-101.1-101.1c-25.4-25.3-42.8-57.8-49.9-92.7-.4-2.1,2.1-3.4,3.6-1.9l142.5,142.5c2.7,2.7,7.3.8,7.3-3v-50.5c0-2.3-.9-4.4-2.5-6.1l-149.8-149.8c-1-1-1.5-2.4-1.2-3.8,2.2-10.9,5.4-21.6,9.6-32,.6-1.4,2.4-1.8,3.5-.7Z"/>
    <path class="cls-1" d="M906.9,292.8h0c0-.1,0-.3,0-.4,0-.5,0-1-.1-1.4,0-.7-.1-1.5-.2-2.2,0-.5,0-1-.1-1.5,0-.7-.1-1.4-.2-2.1,0-.5-.1-1-.2-1.5,0-.7-.2-1.4-.3-2.1,0-.5-.1-1-.2-1.5,0-.7-.2-1.5-.3-2.2,0-.5-.1-1-.2-1.4-.1-.8-.2-1.6-.4-2.4,0-.4-.1-.8-.2-1.2-.2-1.1-.4-2.2-.6-3.3,0-.1,0-.2,0-.3-.2-1.2-.4-2.4-.7-3.6,0-.4-.2-.8-.2-1.1-.2-.8-.3-1.6-.5-2.5,0-.5-.2-.9-.3-1.4-.2-.7-.3-1.5-.5-2.2-.1-.5-.2-1-.3-1.5-.2-.7-.3-1.4-.5-2.1-.1-.5-.2-1-.4-1.5-.2-.7-.4-1.4-.6-2.1-.1-.5-.3-1-.4-1.5-.2-.7-.4-1.4-.6-2.2-.1-.5-.3-.9-.4-1.4-.2-.8-.5-1.6-.7-2.4-.1-.4-.2-.8-.3-1.2h0c-.5-1.7-2.4-2.2-3.6-1l-34.3,34.3h0s-105.2,105.2-105.2,105.2c-1.3,1.3-3.7.4-3.7-1.5v-41.5c0-1.1.5-2.2,1.3-3l125.7-125.7c2.7-2.7,3.3-6.9,1.4-10.2-4.9-8.7-10.3-17.2-16.4-25.3-3.1-4.2-9.2-4.6-12.9-.9l-141.5,141.5c-1.6,1.6-2.5,3.8-2.5,6.1v60.8h0c0,0,0,48.3,0,48.3h0v54.1c0,3.8,4.6,5.7,7.3,3l142.5-142.5c1.5-1.5,4-.1,3.6,1.9-2.2,11-5.5,21.8-9.7,32.3-9.2,22.6-22.7,42.9-40.1,60.4l-101.1,101.1c-1.6,1.6-2.5,3.8-2.5,6.1v49.7c0,3.8,4.6,5.7,7.3,3l128-128c48.8-48.8,70.8-114.2,66-177.9Z"/>
  </g>
  <g>
    <path class="cls-5" d="M0,702.3c0-6,3-9,9-9h94.2c6,0,9,3,9,9v5.5c0,6-3,9-9,9H26.8v60.5h60.5c6,0,9,3,9,9v5.5c0,6-3,9-9,9H26.8v62.2h81.1c6,0,9,3,9,9v5.5c0,6-3,9-9,9H9c-6,0-9-3-9-9v-175.3Z"/>
    <path class="cls-5" d="M142.2,848.9c0-7.1,1.4-13.3,4.1-18.5,2.7-5.2,6.4-9.5,11-13,4.6-3.5,9.7-6.3,15.5-8.5s11.7-3.8,17.9-4.9c6.2-1.1,12.3-1.8,18.2-2.2,5.9-.4,11.3-.5,16-.5h7.1v-3.6c0-5.7-.8-10.5-2.3-14.4-1.6-3.9-3.7-7.1-6.4-9.5-2.7-2.4-5.9-4.1-9.6-5.1-3.7-1-7.6-1.5-11.8-1.5-6.9,0-13.1,1-18.5,3-5.4,2-9.6,3.9-12.7,5.8-5.3,2.6-9.4,1.5-12.3-3.3l-2.2-3.8c-2.9-5.5-1.9-9.6,3-12.3,4.2-2.4,10.1-4.9,17.7-7.7,7.6-2.7,16.7-4.1,27.3-4.1,17.4,0,30.8,4.6,40.3,13.8,9.5,9.2,14.2,22.7,14.2,40.4v78.6c0,6-3,9-9,9h-6.8c-6,0-9-3-9-9v-11.8c0-1.1,0-2,.3-2.7.2-.7.4-1.5.5-2.2h-.5c-2.7,5.5-6.2,10.3-10.4,14.5-3.7,3.7-8.3,7-14,10-5.7,3-12.6,4.5-20.8,4.5s-11.9-.9-17.5-2.7c-5.7-1.8-10.6-4.5-14.9-8.1-4.3-3.6-7.7-7.9-10.3-12.9-2.6-5-3.8-10.8-3.8-17.4ZM169,846.7c0,5.5,2.1,10.5,6.4,15.2,4.3,4.7,10.7,7,19.3,7s11.1-1.3,15.8-4c4.7-2.6,8.6-6.1,11.8-10.4,3.2-4.3,5.7-9,7.4-14.2,1.7-5.2,2.6-10.4,2.6-15.5v-6h-7.1c-4.9,0-10.6.2-17,.7-6.4.5-12.5,1.6-18.4,3.4-5.8,1.8-10.8,4.6-14.8,8.4-4,3.7-6,8.9-6,15.5Z"/>
    <path class="cls-5" d="M301.9,757.1c0-6,3-9,9-9h7.7c6,0,9,3,9,9v15.9c0,1.5,0,2.8-.1,4.1,0,1.3-.2,2.4-.4,3.3-.2,1.1-.3,2.1-.3,3h.5c1.5-4.6,3.5-9,6.2-13.4,2.6-4.4,5.8-8.3,9.5-11.6,3.7-3.4,7.7-6.1,12.2-8.2,4.5-2.1,9.4-3.2,14.7-3.2s8.8,3,8.8,9v7.7c0,6-3.3,9-9.9,9s-12.6,1.7-17.7,5.1c-5,3.4-9.2,7.7-12.6,13-3.4,5.3-5.9,11.4-7.5,18.2-1.6,6.8-2.5,13.7-2.5,20.4v48.2c0,6-3,9-9,9h-8.5c-6,0-9-3-9-9v-120.5Z"/>
    <path class="cls-5" d="M412.9,771.1h-9.6c-5.8,0-8.8-3-8.8-9v-3.6c0-6,3-9,9-9h9.9v-30.4c0-6,3-9,9-9h7.9c6,0,9,3,9,9v30.4h24.1c6,0,9,3,9,9v3.6c0,6-2.9,9-8.8,9h-24.4v61.6c0,6.6.9,11.9,2.7,15.9,1.8,4,4.1,7.1,6.7,9.3,2.6,2.2,5.5,3.7,8.5,4.5,3,.8,5.8,1.3,8.4,1.5,3.7.4,6.2,1.2,7.5,2.5,1.4,1.3,2.1,3.5,2.1,6.6v5.8c0,6-3.7,9-11,9s-13.5-1-19.7-3c-6.2-2-11.6-5.1-16.3-9.3-4.7-4.2-8.4-9.5-11.2-15.9-2.8-6.4-4.2-14-4.2-22.7v-65.8Z"/>
    <path class="cls-5" d="M507.1,702.3c0-6,3-9,9-9h8.5c5.8,0,8.8,3,8.8,9v62.7c0,1.6,0,3.2-.1,4.7,0,1.5-.2,2.7-.4,3.6-.2,1.3-.3,2.4-.3,3.3h.5c1.5-3.3,3.7-6.8,6.7-10.5,3-3.7,6.7-7.2,11.1-10.4,4.4-3.2,9.4-5.8,15.1-7.8,5.7-2,12-3,18.9-3,16.4,0,28.5,4.4,36.2,13.3,7.7,8.9,11.5,22.1,11.5,39.9v79.7c0,6-3,9-9,9h-8.5c-6,0-9-3-9-9v-73.7c0-4.9-.3-9.5-1-13.7-.6-4.2-1.9-7.9-3.8-11-1.9-3.1-4.6-5.6-8.1-7.4-3.5-1.8-7.9-2.7-13.4-2.7s-12.7,1.3-18.4,3.8c-5.7,2.6-10.5,6.2-14.7,10.8-4.1,4.7-7.4,10.1-9.7,16.4-2.4,6.3-3.6,13.2-3.6,20.7v56.7c0,6-2.9,9-8.8,9h-8.5c-6,0-9-3-9-9v-175.3Z"/>
    <path class="cls-5" d="M671.2,870c-1.8-1.6-3-3.5-3.4-5.5-.5-2,.3-4.4,2.3-7.1l4.7-6.6c3.3-4.2,7.4-4.7,12.3-1.6,1.6,1.3,3.8,2.8,6.6,4.5,2.7,1.7,5.9,3.4,9.5,5.1,3.6,1.6,7.5,3.1,11.9,4.2,4.4,1.2,9.1,1.8,14.2,1.8,10.4,0,18.7-2.5,24.8-7.5,6.1-5,9.2-11.7,9.2-20.1s-2.3-13-6.8-17.5c-4.6-4.6-10.3-8.6-17.3-12.2-6.9-3.6-14.4-7-22.5-10.4-8-3.4-15.5-7.3-22.5-11.8-6.9-4.5-12.7-10-17.3-16.6-4.6-6.6-6.8-14.9-6.8-24.9s1.6-15.6,4.8-22.2c3.2-6.6,7.6-12.2,13.3-16.8,5.7-4.7,12.3-8.3,20-10.8,7.7-2.6,15.9-3.8,24.7-3.8s11,.5,16.2,1.5c5.1,1,9.8,2.2,14,3.7,4.2,1.5,7.9,3.1,11,4.8,3.1,1.7,5.6,3.3,7.4,4.8,4.4,3.1,5.3,7.2,2.7,12.3l-3.8,6.8c-1.6,2.9-3.5,4.4-5.6,4.5-2.1,0-4.3-.6-6.7-2.1-3.7-2.2-8.5-4.6-14.4-7.3-5.9-2.6-13-4-21.2-4s-18.4,2.4-24.9,7.3c-6.6,4.8-9.9,11.5-9.9,19.9s2.3,12.6,6.8,17c4.6,4.4,10.3,8.3,17.3,11.6,6.9,3.4,14.4,6.7,22.5,9.9,8,3.2,15.5,7.1,22.5,11.6,6.9,4.6,12.7,10.2,17.3,16.8,4.6,6.7,6.8,15.2,6.8,25.6s-1.4,14.8-4.1,21.5c-2.7,6.7-6.8,12.5-12.1,17.4-5.3,4.9-11.7,8.9-19.3,11.8-7.6,2.9-16.2,4.4-25.9,4.4s-13.5-.7-19.6-2.1c-6.1-1.4-11.6-3.1-16.6-5.2-4.9-2.1-9.3-4.3-13-6.6-3.7-2.3-6.7-4.3-8.9-6.2Z"/>
    <path class="cls-5" d="M819.4,817.4c0-10.2,1.8-19.8,5.5-28.6,3.7-8.9,8.8-16.5,15.3-23,6.6-6.5,14.4-11.6,23.4-15.3,9-3.7,18.9-5.6,29.7-5.6s11.1.5,15.9,1.5c4.7,1,9,2.2,12.9,3.7,3.8,1.5,7.2,3.1,10,4.8,2.8,1.7,5.2,3.3,7,4.8,2.4,1.5,3.7,3.3,3.8,5.5.2,2.2-.5,4.5-2.2,6.8l-2.7,4.1c-2.9,4.6-7,5.3-12.3,2.2-2.9-2-7-4.2-12.2-6.7-5.2-2.5-11.5-3.7-18.8-3.7s-13.4,1.2-19.3,3.7c-5.9,2.5-11.1,5.9-15.3,10.3-4.3,4.4-7.6,9.6-10,15.6-2.4,6-3.6,12.6-3.6,19.7s1.2,13.7,3.6,19.7c2.4,6,5.8,11.3,10.1,15.8,4.4,4.5,9.5,8,15.5,10.5,5.9,2.6,12.5,3.8,19.6,3.8s15.6-1.5,21.5-4.4c5.9-2.9,10.5-5.7,13.8-8.2,5.1-3.3,9.2-2.5,12.3,2.5l2.2,4.1c2.9,4.9,2.1,9-2.5,12.1-2,1.6-4.5,3.4-7.5,5.3-3,1.9-6.6,3.7-10.7,5.5-4.1,1.7-8.8,3.2-14,4.4-5.2,1.2-10.9,1.8-17.1,1.8-11,0-21-1.8-30-5.5-9-3.7-16.8-8.7-23.3-15.2-6.5-6.5-11.6-14.2-15.2-23-3.7-8.9-5.5-18.5-5.5-28.9Z"/>
    <path class="cls-5" d="M970.1,817.1c0-10.4,2-20,5.9-28.9,3.9-8.9,9.2-16.5,15.9-23,6.7-6.5,14.5-11.5,23.6-15.1,9-3.6,18.8-5.3,29.2-5.3s20.1,1.8,29.2,5.3c9,3.6,16.9,8.6,23.7,15.1,6.8,6.5,12.1,14.2,16,23,3.9,8.9,5.9,18.5,5.9,28.9s-2,20.3-5.9,29.2c-3.9,8.9-9.3,16.5-16,23-6.8,6.5-14.7,11.6-23.7,15.2-9,3.7-18.8,5.5-29.2,5.5s-20.1-1.8-29.2-5.5c-9-3.7-16.9-8.7-23.6-15.2-6.7-6.5-12-14.2-15.9-23-3.9-8.9-5.9-18.6-5.9-29.2ZM997,817.1c0,7.3,1.3,14,3.8,20.1,2.6,6.1,6,11.4,10.3,15.8,4.3,4.4,9.3,7.8,15.1,10.3,5.8,2.5,11.9,3.7,18.5,3.7s12.7-1.2,18.5-3.7c5.8-2.5,10.8-5.9,15.2-10.3,4.4-4.4,7.8-9.6,10.3-15.8,2.5-6.1,3.7-12.8,3.7-20.1s-1.2-13.7-3.7-19.7c-2.5-6-5.9-11.2-10.3-15.6-4.4-4.4-9.5-7.8-15.2-10.3-5.8-2.5-11.9-3.7-18.5-3.7s-12.7,1.2-18.5,3.7c-5.8,2.5-10.8,5.9-15.1,10.3-4.3,4.4-7.7,9.6-10.3,15.6-2.6,6-3.8,12.6-3.8,19.7Z"/>
    <path class="cls-5" d="M1155.6,757.1c0-6,3-9,9-9h7.7c6,0,9,3,9,9v15.9c0,1.5,0,2.8-.1,4.1,0,1.3-.2,2.4-.4,3.3-.2,1.1-.3,2.1-.3,3h.5c1.5-4.6,3.5-9,6.2-13.4,2.6-4.4,5.8-8.3,9.5-11.6,3.7-3.4,7.7-6.1,12.2-8.2,4.5-2.1,9.4-3.2,14.7-3.2s8.8,3,8.8,9v7.7c0,6-3.3,9-9.9,9s-12.6,1.7-17.7,5.1c-5,3.4-9.2,7.7-12.6,13-3.4,5.3-5.9,11.4-7.5,18.2-1.6,6.8-2.5,13.7-2.5,20.4v48.2c0,6-3,9-9,9h-8.5c-6,0-9-3-9-9v-120.5Z"/>
    <path class="cls-5" d="M1246.8,817.4c0-11,1.8-20.9,5.3-29.9,3.6-8.9,8.4-16.6,14.5-22.9,6.1-6.3,13.4-11.2,21.9-14.7,8.5-3.5,17.7-5.2,27.5-5.2s18,1.6,25.5,4.9c7.5,3.3,13.7,7.9,18.8,13.7,5,5.8,8.9,12.8,11.5,20.8,2.6,8,4,16.9,4,26.6s-.9,4.8-2.6,6.6c-1.7,1.8-4,2.7-6.7,2.7h-92.6c.4,7.5,1.9,14.2,4.7,20,2.7,5.8,6.3,10.8,10.7,14.8,4.4,4,9.4,7,14.9,9,5.6,2,11.5,3,17.7,3s14.3-1.2,20-3.7c5.7-2.5,10-4.9,13.2-7.3,5.5-2.9,9.6-1.9,12.3,3l2.5,4.1c1.5,2.4,2,4.6,1.5,6.7-.5,2.1-1.9,3.9-4.2,5.3-2,1.5-4.6,3.1-7.7,4.8-3.1,1.7-6.6,3.3-10.5,4.8-3.9,1.5-8.3,2.7-13.2,3.7-4.8,1-10,1.5-15.5,1.5-11,0-20.9-1.9-29.9-5.6-9-3.7-16.7-8.9-23.2-15.3-6.5-6.5-11.5-14.2-15.1-23-3.6-8.9-5.3-18.4-5.3-28.6ZM1349.3,802.6c-.4-12.2-3.8-21.5-10.3-27.7-6.5-6.2-14.3-9.3-23.4-9.3s-19,3.2-26.4,9.7c-7.4,6.5-12.1,15.6-14.1,27.3h74.2Z"/>
  </g>
</svg>